<?xml version="1.0" encoding="utf-8"?>
<!DOCTYPE svg PUBLIC "-//W3C//DTD SVG 1.0//EN" "http://www.w3.org/TR/2001/REC-SVG-20010904/DTD/svg10.dtd">
<svg version="1.0" xmlns="http://www.w3.org/2000/svg" width="400mm" height="456.1mm" viewBox="0 0 400 456.1" preserveAspectRatio="xMidYMid meet">
 <g fill="#ede6d3">
  <path d="M175.181 379.665 c-4.714 -0.255 -9.619 -0.637 -10.829 -0.828 -1.210 -0.255 -5.924 -1.019 -10.511 -1.720 -11.084 -1.784 -17.263 -3.313 -26.245 -6.434 -10.702 -3.758 -14.397 -5.733 -24.908 -13.377 l-4.905 -3.567 -5.287 -5.606 c-2.930 -3.058 -6.752 -7.644 -8.536 -10.129 l-3.249 -4.523 -2.038 -4.459 c-1.147 -2.421 -2.930 -7.007 -4.013 -10.192 l-1.911 -5.733 -1.401 -8.281 -1.401 -8.281 0.319 -8.600 0.319 -8.600 1.019 -5.733 c0.573 -3.121 1.911 -8.664 2.994 -12.295 l1.911 -6.561 3.313 -7.453 c3.758 -8.409 6.052 -12.677 10.957 -20.130 l3.376 -5.160 2.038 -1.529 2.102 -1.529 8.026 -0.510 c16.499 -1.147 27.519 -3.185 39.177 -7.326 l4.332 -1.529 3.440 -2.293 3.440 -2.293 2.230 -2.612 c1.210 -1.401 2.803 -3.758 3.504 -5.287 l1.338 -2.675 0.573 -3.822 0.637 -3.758 -0.637 -3.249 -0.573 -3.313 -1.338 -2.484 -1.274 -2.548 -2.357 -2.293 -2.357 -2.293 -4.459 -2.102 c-2.484 -1.210 -6.115 -2.867 -8.154 -3.758 l-3.567 -1.593 -3.758 -2.739 c-2.038 -1.529 -4.204 -3.313 -4.778 -4.077 -2.230 -2.548 -6.752 -9.683 -9.428 -14.652 l-2.739 -5.096 -2.166 -2.293 -2.230 -2.357 -3.313 -1.784 -3.249 -1.847 -5.733 0 -5.733 0 -3.695 2.166 -3.695 2.102 -0.382 -0.319 -0.319 -0.382 2.038 -8.026 2.038 -8.090 1.847 -4.523 c4.650 -11.212 10.256 -19.557 19.047 -28.475 l5.415 -5.478 6.052 -4.204 c6.434 -4.459 10.957 -6.880 18.155 -9.746 4.650 -1.847 5.861 -2.230 13.696 -3.886 l4.778 -1.019 7.326 -0.446 7.326 -0.446 7.453 0.764 7.517 0.828 5.096 1.274 c10.383 2.739 20.767 7.644 29.303 13.951 l4.778 3.504 5.733 5.797 5.797 5.797 3.376 5.096 c1.847 2.803 4.778 8.026 6.561 11.658 l3.185 6.625 1.465 5.478 c0.764 3.058 1.847 7.581 2.293 10.001 l0.892 4.459 -0.064 11.148 0 11.148 -0.828 3.822 c-2.612 12.613 -6.880 22.359 -15.416 35.164 l-4.332 6.434 0.828 0.701 c0.446 0.382 2.230 1.147 3.950 1.656 l3.121 0.956 9.555 0 9.555 0 5.032 -0.956 c2.803 -0.573 7.581 -1.847 10.638 -2.867 l5.542 -1.911 5.287 -2.930 c7.071 -3.886 17.518 -10.957 23.506 -15.798 2.612 -2.166 6.561 -4.969 8.727 -6.307 l3.886 -2.357 1.911 -0.382 1.911 -0.382 2.230 0.701 2.230 0.764 2.867 3.058 2.930 3.121 2.675 5.287 c4.077 8.154 7.581 17.900 10.893 30.513 1.911 7.326 2.293 9.173 4.077 20.385 l1.019 6.052 0 14.014 0 14.014 -1.401 8.281 c-2.612 15.352 -5.733 25.736 -11.212 36.947 l-3.376 7.071 -3.695 5.478 c-2.038 3.058 -5.924 8.154 -8.664 11.339 l-4.969 5.733 -5.861 5.160 -5.861 5.160 -5.733 3.758 c-3.121 2.102 -9.046 5.478 -13.059 7.517 l-7.326 3.695 -7.644 2.612 c-11.849 4.077 -19.875 5.861 -35.992 8.154 l-6.689 0.892 -28.347 0.255 -28.347 0.255 -8.600 -0.510z m-3.121 -231.303 l2.166 -0.764 2.102 -1.911 2.038 -1.975 1.274 -2.612 1.210 -2.548 0.446 -4.204 0.382 -4.204 -1.019 -3.504 -1.019 -3.504 -2.484 -2.867 -2.548 -2.867 -2.803 -0.828 -2.867 -0.764 -2.803 1.274 -2.867 1.274 -1.656 2.102 c-1.911 2.548 -3.376 6.243 -3.886 9.938 l-0.382 2.675 0.701 3.121 0.637 3.185 2.038 3.376 2.038 3.440 2.867 1.401 c3.376 1.656 3.631 1.656 6.434 0.764z"/>
  <path d="M90.457 207.733 l-4.778 -0.510 -5.224 -1.401 c-8.791 -2.230 -18.537 -6.752 -27.328 -12.549 l-3.758 -2.484 -4.841 -4.778 -4.841 -4.778 -1.847 -3.822 -1.784 -3.758 -0.255 -3.950 -0.255 -3.950 1.593 -3.567 1.593 -3.504 2.803 -1.401 2.739 -1.465 12.422 -0.446 12.422 -0.382 5.096 -1.847 c6.561 -2.421 11.976 -5.478 18.983 -10.702 l5.669 -4.204 2.612 0 c1.465 0 3.695 0.319 4.905 0.637 l2.293 0.637 1.975 2.038 2.038 2.102 3.440 6.625 3.504 6.689 3.058 3.758 3.058 3.758 4.141 3.185 4.204 3.121 6.689 3.185 c3.695 1.784 7.389 3.567 8.281 3.950 2.548 1.147 3.886 2.484 4.841 4.905 l0.956 2.230 0.064 2.293 0 2.293 -1.210 2.803 -1.274 2.867 -2.484 1.975 c-3.313 2.548 -5.988 3.886 -11.721 5.797 -6.816 2.166 -8.472 2.612 -15.289 3.695 l-6.052 0.956 -10.829 0.255 -10.829 0.255 -4.778 -0.510z m29.940 -9.938 c2.293 -0.573 5.606 -1.210 7.326 -1.529 1.784 -0.319 5.733 -1.529 8.791 -2.612 l5.606 -2.038 0.956 -1.465 0.892 -1.401 -0.382 -1.083 -0.382 -1.019 -2.675 0 c-1.401 0 -3.758 0.319 -5.160 0.701 -1.401 0.382 -5.415 1.019 -8.918 1.401 l-6.370 0.701 -10.829 0.064 -10.829 0 -4.905 -0.764 -4.905 -0.828 -5.287 -1.847 c-7.772 -2.675 -15.097 -6.752 -21.850 -12.167 -2.612 -2.102 -7.644 -4.650 -10.638 -5.351 l-1.720 -0.382 -1.593 0.637 -1.656 0.637 0 2.166 0 2.166 2.421 3.121 2.484 3.058 3.440 2.612 c4.268 3.313 14.142 9.237 17.136 10.383 1.210 0.446 3.121 1.210 4.141 1.656 2.102 0.892 7.899 2.484 12.422 3.440 l2.867 0.573 12.740 0.064 12.740 0 4.141 -0.892z"/>
 </g>
</svg>